<svg width="28" height="28" viewBox="0 0 28 28" fill="none" xmlns="http://www.w3.org/2000/svg">
  <circle cx="14" cy="14" r="14" fill="url(#paint0_linear_7766_29778)" />
  <path
    d="M19.88 10.115H8.68C8.53148 10.115 8.38904 10.056 8.28402 9.95098C8.179 9.84596 8.12 9.70352 8.12 9.555C8.12 9.40648 8.179 9.26404 8.28402 9.15902C8.38904 9.054 8.53148 8.995 8.68 8.995H18.2C18.3485 8.995 18.491 8.936 18.596 8.83098C18.701 8.72596 18.76 8.58352 18.76 8.435C18.76 8.28648 18.701 8.14404 18.596 8.03902C18.491 7.934 18.3485 7.875 18.2 7.875H8.68C8.23444 7.875 7.80712 8.052 7.49206 8.36706C7.177 8.68212 7 9.10944 7 9.555V18.515C7 18.9606 7.177 19.3879 7.49206 19.7029C7.80712 20.018 8.23444 20.195 8.68 20.195H19.88C20.177 20.195 20.4619 20.077 20.672 19.867C20.882 19.6569 21 19.372 21 19.075V11.235C21 10.938 20.882 10.6531 20.672 10.443C20.4619 10.233 20.177 10.115 19.88 10.115ZM17.36 15.715C17.1939 15.715 17.0315 15.6657 16.8933 15.5734C16.7552 15.4811 16.6475 15.3499 16.5839 15.1965C16.5204 15.043 16.5037 14.8741 16.5361 14.7111C16.5686 14.5482 16.6486 14.3985 16.766 14.281C16.8835 14.1636 17.0332 14.0836 17.1961 14.0511C17.3591 14.0187 17.528 14.0354 17.6815 14.0989C17.8349 14.1625 17.9661 14.2702 18.0584 14.4083C18.1507 14.5465 18.2 14.7089 18.2 14.875C18.2 15.0978 18.1115 15.3114 17.954 15.469C17.7964 15.6265 17.5828 15.715 17.36 15.715Z"
    fill="white" />
  <defs>
    <linearGradient id="paint0_linear_7766_29778" x1="14" y1="0" x2="14" y2="28" gradientUnits="userSpaceOnUse">
      <stop stop-color="#54DADE" />
      <stop offset="1" stop-color="#24C7D6" />
    </linearGradient>
  </defs>
</svg>